<svg width="17" height="17" viewBox="0 0 17 17" fill="none" xmlns="http://www.w3.org/2000/svg">
  <g clip-path="url(#clip0_1202_1343)">
    <path fill-rule="evenodd" clip-rule="evenodd" d="M12.5286 5.15849H15.4786C15.7267 5.1708 15.9632 5.26744 16.1489 5.43243C16.3346 5.59743 16.4584 5.82086 16.4999 6.06579V9.92376C16.5017 10.0435 16.4794 10.1624 16.4344 10.2733C16.3895 10.3843 16.3226 10.4851 16.238 10.5698C16.1533 10.6545 16.0525 10.7213 15.9415 10.7663C15.8305 10.8113 15.7116 10.8336 15.5919 10.8317H11.1666V10.2644C11.162 9.90472 11.0169 9.56105 10.7625 9.30676C10.5081 9.05245 10.1643 8.90758 9.80464 8.90312H7.19534C6.83563 8.90758 6.49191 9.05245 6.23747 9.30676C5.98304 9.56105 5.83802 9.90472 5.83336 10.2644V10.8317H1.40807C1.28837 10.8334 1.16953 10.8111 1.05859 10.7661C0.947658 10.7211 0.846887 10.6543 0.762227 10.5696C0.677566 10.4849 0.610748 10.3842 0.565723 10.2732C0.520699 10.1623 0.498375 10.0435 0.500092 9.92376V6.06579C0.498375 5.94612 0.520699 5.82731 0.565737 5.71643C0.610776 5.60552 0.677594 5.50481 0.762268 5.4202C0.846929 5.3356 0.947714 5.26884 1.05865 5.22388C1.16957 5.17893 1.28839 5.1567 1.40807 5.15849H4.35805V3.90983C4.35698 3.6413 4.40909 3.3752 4.51137 3.12689C4.61365 2.8786 4.76406 2.65299 4.95396 2.46312C5.14385 2.27322 5.36945 2.1228 5.61775 2.02052C5.86604 1.91825 6.13214 1.86614 6.40069 1.8672H10.486C10.7545 1.86614 11.0206 1.91825 11.2689 2.02052C11.5172 2.1228 11.7428 2.27322 11.9327 2.46312C12.1226 2.65299 12.273 2.8786 12.3753 3.12689C12.4776 3.3752 12.5297 3.6413 12.5286 3.90983V5.15849ZM5.83336 5.15849H10.94V3.90983C10.945 3.83402 10.9337 3.75804 10.907 3.68693C10.8802 3.61584 10.8386 3.55128 10.7849 3.49756C10.7312 3.44384 10.6666 3.40223 10.5955 3.37548C10.5244 3.34873 10.4484 3.33751 10.3726 3.34251H6.40069C6.32488 3.33751 6.24889 3.34873 6.17778 3.37548C6.10669 3.40223 6.04212 3.44384 5.9884 3.49756C5.93469 3.55128 5.89307 3.61584 5.86632 3.68693C5.83959 3.75804 5.82835 3.83402 5.83336 3.90983V5.15849Z" fill="currentColor"/>
    <path d="M7.30866 11.5123H9.57531C9.68863 11.5123 9.91596 11.399 9.91596 11.2856V10.0377C9.92254 9.99139 9.91824 9.94423 9.90344 9.89989C9.89758 9.88235 9.89013 9.86543 9.88123 9.84935C9.86764 9.8248 9.85065 9.80221 9.8307 9.78225C9.79766 9.74922 9.75738 9.72431 9.71305 9.70951C9.66874 9.69471 9.62158 9.69041 9.57531 9.69698H7.30866C7.28177 9.69309 7.25458 9.69287 7.2278 9.69625C7.20848 9.69871 7.18938 9.70303 7.17077 9.70921C7.12637 9.72395 7.08604 9.74886 7.05297 9.78194C7.01989 9.815 6.99498 9.85535 6.98023 9.89975C6.96548 9.94414 6.9613 9.99136 6.968 10.0377V11.2856C7.08133 11.399 7.19534 11.5123 7.30866 11.5123Z" fill="currentColor"/>
    <path d="M9.80508 12.3068H7.08178C6.82018 12.3047 6.56441 12.2291 6.34374 12.0886C6.12305 11.9481 5.94635 11.7483 5.83379 11.5121H0.841191V14.9168C0.839404 15.0364 0.86163 15.1553 0.906585 15.2662C0.95154 15.3771 1.0183 15.4779 1.10289 15.5626C1.1875 15.6472 1.28824 15.7141 1.39913 15.7591C1.51003 15.8041 1.62884 15.8265 1.74851 15.8248H15.025C15.1447 15.8265 15.2636 15.8041 15.3745 15.7591C15.4854 15.7141 15.5862 15.6473 15.6709 15.5626C15.7555 15.478 15.8224 15.3772 15.8674 15.2662C15.9124 15.1553 15.9347 15.0365 15.933 14.9168V11.5121H10.8264C10.7634 11.7363 10.6302 11.9344 10.4464 12.0774C10.2626 12.2205 10.0379 12.3008 9.80508 12.3068Z" fill="currentColor"/>
  </g>
  <defs>
    <clipPath id="clip0_1202_1343">
      <rect width="16" height="16" fill="white" transform="translate(0.5 0.666992)"/>
    </clipPath>
  </defs>
</svg>
