<svg width="17" height="17" viewBox="0 0 17 17" fill="none" xmlns="http://www.w3.org/2000/svg">
  <g clip-path="url(#clip0_1181_8795)">
    <path d="M13.5331 3.72995C13.6943 3.91347 14.3172 4.72543 14.5397 5.11473L15.6686 5.12585C15.9578 5.12585 16.1914 5.40392 16.1914 5.72092C16.1914 5.99899 16.1914 6.18252 16.1914 6.3438C16.1914 6.66079 16.0746 6.84988 15.7576 6.96667L15.3405 6.98336L15.5407 7.55618C15.9745 8.88535 16.0246 11.0209 15.5518 12.2111V13.3066C15.5518 13.8517 15.3016 14.1242 15.068 14.1353C14.8344 14.1464 13.6665 14.1242 13.6665 14.1242C13.1938 14.1242 12.9435 13.9351 12.9269 13.2622L12.9436 12.6448C11.9647 12.8284 6.01962 12.7783 4.97965 12.6282L4.99633 13.2622C4.97965 13.9406 4.79056 14.1409 4.29003 14.1242C4.29003 14.1242 3.09434 14.152 2.86076 14.1353C2.62718 14.1242 2.37692 13.8572 2.37692 13.3066V12.2111C1.88196 10.8874 1.95425 8.88535 2.38804 7.55618L2.59382 6.95555H2.17671C1.85971 6.84432 1.74292 6.64967 1.74292 6.33823C1.74292 6.17695 1.74292 5.98787 1.74292 5.71536C1.74292 5.40392 1.9765 5.12029 2.26569 5.12029L3.39465 5.10917C3.61155 4.71987 4.23442 3.90791 4.40126 3.72438C4.96853 3.01809 7.55457 2.71777 8.80032 2.71777C10.0461 2.71777 12.9714 3.01253 13.5386 3.72438L13.5331 3.72995ZM6.05299 9.60833C6.05299 9.02994 5.60808 8.5183 4.96852 8.5183C4.32897 8.5183 3.82288 8.96877 3.82288 9.60833C3.82288 10.2479 4.33453 10.7651 4.96852 10.7651C5.54135 10.7651 6.05299 10.2534 6.05299 9.60833ZM13.1104 10.7651C13.7499 10.7651 14.2616 10.2534 14.2616 9.60833C14.2616 8.96321 13.7499 8.51274 13.1104 8.51274C12.4708 8.51274 12.0259 9.02438 12.0259 9.60833C12.0259 10.2534 12.5376 10.7651 13.1104 10.7651ZM4.91291 4.20822C4.77388 4.3417 4.40126 4.75324 4.10651 5.27045C3.74502 5.90445 3.46139 6.6163 3.4169 6.73309C4.07314 6.73309 4.92403 6.71641 5.94177 6.63855C6.78154 6.57181 7.94387 6.49395 8.82813 6.49395C9.71239 6.49395 11.1417 6.57181 11.9814 6.63855C12.9992 6.71641 13.8501 6.73309 14.5063 6.73309C14.4618 6.6163 14.1782 5.90445 13.8167 5.27045C13.5219 4.75324 13.1493 4.3417 13.0103 4.20822C12.5264 3.76887 10.0961 3.49637 8.78363 3.50193C7.54345 3.50193 5.40231 3.75219 4.92403 4.20822H4.91291Z" fill="currentColor"/>
  </g>
  <defs>
    <clipPath id="clip0_1181_8795">
      <rect width="16" height="16" fill="currentColor" transform="translate(0.902344 0.717773)"/>
    </clipPath>
  </defs>
</svg>
