<svg width="40" height="40" viewBox="0 0 40 40" fill="none" xmlns="http://www.w3.org/2000/svg">
  <path d="M29.9706 31.4484C29.5588 31.8602 28.8039 31.8602 28.3921 31.4484L19.333 22.3207L10.2053 31.4484C9.79353 31.8602 9.03861 31.8602 8.62683 31.4484C8.21505 31.0366 8.21505 30.2817 8.62683 29.8699L17.7545 20.7422L8.62683 11.6832C8.21505 11.2714 8.21505 10.5165 8.62683 10.1047C9.03861 9.69291 9.79353 9.69291 10.2053 10.1047L19.333 19.2324L28.3921 10.1047C28.8039 9.69291 29.5588 9.69291 29.9706 10.1047C30.3823 10.5165 30.3823 11.2714 29.9706 11.6832L20.8429 20.7422L29.9706 29.8699C30.3823 30.2817 30.3823 31.0366 29.9706 31.4484Z" fill="currentColor"/>
</svg>
