<svg width="17" height="17" viewBox="0 0 17 17" fill="none" xmlns="http://www.w3.org/2000/svg">
  <path d="M5.827 14.1938L2.74858 11.0979C2.62773 10.9763 2.62773 10.7397 2.74858 10.6245C2.86943 10.503 3.10476 10.503 3.21924 10.6245L6.29768 13.7205C6.41853 13.842 6.41853 14.0787 6.29768 14.1938C6.1832 14.3153 6.06234 14.3153 5.827 14.1938ZM13.6375 3.2493C11.6277 1.22799 8.31391 1.22799 6.18318 3.12777C5.11464 4.07446 4.64398 5.50728 4.64398 6.93371C4.64398 7.52859 4.40864 8.00194 3.46094 8.95502C3.22561 9.19169 3.22561 9.5499 3.46094 9.67144C3.69627 9.90811 7.01005 13.2407 7.13089 13.4838C7.36623 13.6053 7.60156 13.7205 7.84325 13.4838C8.90544 12.5371 9.38247 12.294 9.85313 12.294C11.157 12.294 12.5754 11.8143 13.6375 10.7461C15.7683 8.72475 15.7683 5.39214 13.6375 3.2493ZM10.9598 3.21092C11.2142 3.33246 11.3415 3.6139 11.2333 3.83139C11.1252 4.04887 10.8199 3.95932 10.5591 3.83778C9.68776 3.4284 8.62557 3.79301 8.12946 4.50302C8.00861 4.72051 7.81145 4.80366 7.56339 4.66933C7.31534 4.53501 7.28989 4.33032 7.39802 4.11283C8.0277 2.96146 9.59235 2.55847 10.9598 3.20452V3.21092ZM5.00016 15.0317C5.11465 15.2684 5.35634 15.1533 5.35634 15.0317C5.47719 14.9102 5.47719 14.6735 5.35634 14.5584L2.27792 11.4625C2.15707 11.3409 1.92174 11.3409 1.80726 11.4625C1.68641 11.584 1.68641 11.8207 1.80726 11.9358L5.00016 15.0317ZM3.81077 15.6266C3.93162 15.7482 4.16695 15.7482 4.28144 15.6266C4.39592 15.5051 4.40228 15.2684 4.28144 15.1533L1.79452 12.6522C1.67368 12.5307 1.43835 12.5307 1.32386 12.6522C1.20938 12.7738 1.20301 13.0104 1.32386 13.1256L3.81077 15.6266ZM2.98391 15.5051L1.33023 13.842C1.20938 14.2002 1.33023 14.7951 1.68641 15.1533C2.04259 15.5115 2.6341 15.6266 2.99028 15.5115L2.98391 15.5051Z" fill="currentColor"/>
</svg>
