<svg width="17" height="16" viewBox="0 0 17 16" fill="none" xmlns="http://www.w3.org/2000/svg">
<g id="Vertical Icons">
<path id="Subtract" fill-rule="evenodd" clip-rule="evenodd" d="M9.19493 0C9.69573 0.803056 9.95334 1.20458 10.7815 1.20458C10.7815 1.20458 12.4178 1.204 13.0083 1.20458C14.1481 1.20572 14.9221 2.56089 14.2504 3.21222C11.7661 5.62139 9.53928 8.03056 10.3674 9.63667C10.4208 9.6884 10.4752 9.74088 10.5304 9.79409C9.6607 9.6687 8.58736 9.75006 8.31004 10.0382C6.48719 9.28063 5.6961 9.23772 4.76162 9.23529C4.64541 8.79685 4.47185 8.38793 4.22616 8.03056C2.24256 6.82597 0.475701 2.00764 7.92887 0.401528L9.19493 0ZM4.94524 10.4462C5.03915 12.1092 4.5858 13.8975 4.22616 14.8565C8.53243 17.1051 12.1801 15.5257 13.4223 14.455C13.4223 13.1096 12.6083 11.9446 11.6974 10.9598L11.7882 11.2428C11.4983 10.9216 9.70129 10.0864 8.31004 11.2428C7.77834 10.8008 6.27127 10.494 4.94524 10.4462Z" fill="#0F58AB"/>
</g>
</svg>
