<svg width="17" height="17" viewBox="0 0 17 17" fill="none" xmlns="http://www.w3.org/2000/svg">
  <path d="M8.5614 6.76175H3.21387C3.09878 6.75848 2.98541 6.73094 2.88026 6.68071C2.77512 6.63048 2.68025 6.55855 2.60109 6.46903C2.52192 6.37951 2.46002 6.27416 2.41891 6.159C2.37781 6.04384 2.35831 5.92113 2.36153 5.7979V4.4726C2.35669 4.22485 2.44362 3.98511 2.60332 3.80575C2.76302 3.6264 2.98252 3.52201 3.21387 3.51538H8.56365C8.67872 3.51873 8.79205 3.54633 8.89716 3.59658C9.00228 3.64684 9.09712 3.71877 9.17626 3.80827C9.25541 3.89778 9.31732 4.0031 9.35845 4.11822C9.39959 4.23334 9.41914 4.35601 9.41599 4.47923V5.80453C9.42067 6.05264 9.33339 6.29265 9.17324 6.47204C9.01308 6.65142 8.7931 6.75559 8.5614 6.76175ZM13.7244 7.62982C13.699 8.18187 13.8243 8.72989 14.085 9.20693L14.1925 9.42138C14.6058 10.2543 14.8391 11.176 14.8749 12.1184C14.8749 13.3684 14.251 13.6244 13.4122 13.6117C12.476 13.5997 12.0338 13.4678 11.9601 12.2696C11.9803 11.6263 12.1022 10.9914 12.3207 10.3919C12.5113 9.79493 12.6565 9.1825 12.755 8.56054C12.8262 8.30026 12.8287 8.02399 12.7624 7.76226C12.696 7.50052 12.5634 7.26352 12.3792 7.07741C11.8488 6.74724 11.2326 6.61066 10.6233 6.68826H10.4714L10.4495 3.42682C10.4495 3.11116 9.92402 1.86719 8.90965 1.86719H3.00008C2.58395 1.86767 2.18217 2.03011 1.86959 2.32425C1.557 2.61838 1.35494 3.02416 1.30103 3.46598V13.4382C1.30103 13.7565 1.4191 14.0617 1.62927 14.2868C1.83944 14.5118 2.1245 14.6382 2.42173 14.6382H9.35298C9.49983 14.6383 9.64526 14.6074 9.78095 14.5473C9.91664 14.4872 10.0399 14.399 10.1438 14.2879C10.2477 14.1767 10.3301 14.0447 10.3863 13.8995C10.4425 13.7542 10.4714 13.5985 10.4714 13.4413V7.48103H10.625C10.9626 7.44018 11.3044 7.48369 11.6236 7.60814C11.703 7.67681 11.8239 7.88042 11.7435 8.47741C11.6482 9.06757 11.5094 9.64871 11.3283 10.2154C11.0857 10.8834 10.9556 11.5921 10.944 12.3087C11.0447 13.9352 11.5629 14.6346 13.1989 14.6659C14.7517 14.6955 15.968 14.2063 15.9287 12.2021C15.8692 11.1292 15.6009 10.0815 15.141 9.1262L15.0386 8.9244C14.8282 8.53115 14.7248 8.08274 14.7399 7.62982L14.7624 7.13946C14.8828 6.49669 14.736 6.41657 14.5576 5.65031C14.4029 4.8559 14.1041 4.1017 13.6783 3.43044C13.2006 2.73285 12.5531 2.52261 11.4841 2.17442L11.2253 2.08948L10.7224 2.85935L10.984 2.94429C11.2917 3.0449 11.5466 3.12863 11.7649 3.21056C11.4419 3.60634 11.2326 4.022 11.5398 5.14971L11.5708 5.26296C11.6319 5.54978 11.7264 5.82724 11.8521 6.08886C11.9508 6.23102 12.0916 6.33314 12.2515 6.37855C12.4114 6.42396 12.581 6.40997 12.7325 6.33886C12.9013 6.28525 13.285 6.17139 13.6006 6.07802C13.752 6.73525 13.8555 6.69127 13.7694 7.15452L13.7244 7.62982ZM12.5244 4.84369C12.3072 4.05212 12.3922 3.81477 12.5306 3.63044C12.6274 3.71606 12.7138 3.81443 12.7877 3.92321C13.064 4.34724 13.2731 4.81721 13.4065 5.31417C13.177 5.38224 12.9131 5.46055 12.7179 5.51959C12.6718 5.38886 12.6138 5.17742 12.5536 4.95694L12.5244 4.84369Z" fill="currentColor"/>
</svg>
