<svg xmlns="http://www.w3.org/2000/svg" width="65" height="61" viewBox="0 0 65 61" fill="none">
  <path fill-rule="evenodd" clip-rule="evenodd" d="M29.4932 23.1014C23.4595 18.1416 18.5704 12.2351 14.8965 5.35353C14.1617 3.98288 12.452 3.46004 11.0672 4.19482C9.69657 4.9296 9.17364 6.63942 9.90843 8.0242C13.9497 15.5557 19.2911 22.0275 25.9042 27.4677C27.1053 28.4568 28.8997 28.2872 29.8889 27.0861C30.878 25.8709 30.6943 24.0905 29.4932 23.1014Z" fill="currentColor"/>
  <path fill-rule="evenodd" clip-rule="evenodd" d="M26.2757 3.7851C26.5866 9.4938 26.8693 15.2025 27.2225 20.9112C27.3214 22.4655 28.6638 23.6525 30.2182 23.5536C31.7725 23.4547 32.9595 22.1123 32.8605 20.5579C32.5073 14.8634 32.2246 9.16883 31.9137 3.46013C31.829 1.91002 30.4866 0.715993 28.9322 0.803601C27.3779 0.89121 26.1768 2.22652 26.2757 3.7851Z" fill="currentColor"/>
  <path fill-rule="evenodd" clip-rule="evenodd" d="M47.2537 4.94386C43.6363 10.3982 39.5387 15.4286 35.4126 20.5155C34.4235 21.7308 34.607 23.5113 35.8223 24.4863C37.0375 25.4754 38.818 25.2916 39.793 24.0764C44.0321 18.8623 48.243 13.6764 51.9734 8.06663C52.8354 6.76663 52.4679 5.01451 51.1679 4.15256C49.882 3.2906 48.1157 3.64386 47.2537 4.94386Z" fill="currentColor"/>
  <path fill-rule="evenodd" clip-rule="evenodd" d="M61.2664 25.221C51.4599 25.659 41.0457 25.6732 31.2392 25.0514C29.6849 24.9667 28.3425 26.1395 28.2436 27.708C28.1446 29.2623 29.3316 30.6047 30.8859 30.7036C40.8903 31.3253 51.5165 31.3112 61.5208 30.8732C63.0751 30.8025 64.2902 29.4743 64.2196 27.92C64.1489 26.3656 62.8207 25.1503 61.2664 25.221Z" fill="currentColor"/>
  <path fill-rule="evenodd" clip-rule="evenodd" d="M25.8967 27.0155C31.9446 34.4198 38.2044 41.6829 43.8142 49.4264C44.7327 50.684 46.4991 50.9665 47.7708 50.0481C49.0284 49.1296 49.3109 47.3632 48.3925 46.1056C42.712 38.2774 36.3816 30.9296 30.2632 23.4404C29.274 22.2393 27.4935 22.0557 26.2924 23.0448C25.0772 24.034 24.9076 25.8144 25.8967 27.0155Z" fill="currentColor"/>
  <path fill-rule="evenodd" clip-rule="evenodd" d="M27.7281 29.1638C29.3107 36.879 29.7488 44.2551 29.8618 52.0692C29.8759 53.6236 31.1618 54.867 32.7162 54.8529C34.2847 54.8246 35.5281 53.5529 35.4998 51.9844C35.3868 43.8029 34.9206 36.1018 33.2673 28.0192C32.9423 26.4931 31.4586 25.5039 29.9184 25.8289C28.3923 26.1398 27.4031 27.6377 27.7281 29.1638Z" fill="currentColor"/>
  <path fill-rule="evenodd" clip-rule="evenodd" d="M27.9832 28.5424C23.405 37.6989 21.0452 47.8729 16.1419 56.8316C15.393 58.1881 15.9016 59.9119 17.2722 60.6609C18.6429 61.4098 20.3528 60.901 21.1017 59.5445C26.0332 50.5293 28.4212 40.2989 33.0419 31.0717C33.7342 29.6728 33.169 27.9772 31.7842 27.2706C30.3853 26.5782 28.6897 27.1435 27.9832 28.5424Z" fill="currentColor"/>
  <path fill-rule="evenodd" clip-rule="evenodd" d="M30.5029 26.4645C21.3887 28.0754 12.2887 28.8101 3.11807 29.8982C1.56372 30.0819 0.461545 31.4808 0.645241 33.0352C0.828936 34.5895 2.22798 35.6917 3.78233 35.508C13.0519 34.42 22.2649 33.6569 31.4921 32.0319C33.0182 31.7493 34.0497 30.2797 33.7812 28.7536C33.4986 27.2134 32.0431 26.1819 30.5029 26.4645Z" fill="currentColor"/>
  <path fill-rule="evenodd" clip-rule="evenodd" d="M36.8448 22.1696C34.9655 22.0848 33.185 21.9576 31.3481 21.6891C29.7937 21.463 28.3665 22.5369 28.1404 24.0772C27.9143 25.6174 28.9882 27.0587 30.5284 27.2848C32.5632 27.5815 34.5273 27.7228 36.5904 27.8076C38.1447 27.8783 39.4729 26.6771 39.5295 25.1087C39.6001 23.5543 38.3992 22.2402 36.8448 22.1696Z" fill="currentColor"/>
</svg>
