<svg xmlns="http://www.w3.org/2000/svg" width="40" height="40" viewBox="0 0 40 40" fill="none">
  <g clip-path="url(#clip0_1038_9641)">
    <path d="M20.8228 0C24.1138 0 26.8512 2.75649 26.8512 6.07047V11.8622C26.8512 12.4197 27.4048 12.9617 27.9431 12.9617H33.9716C37.2626 12.9617 40 15.8575 40 19.1715V20.6891C40 24.0031 37.2626 26.7596 33.9716 26.7596H27.9431C27.3895 26.7596 26.8512 27.3171 26.8512 27.8591V33.9296C26.8512 37.2436 24.1138 40 20.8228 40H19.1772C15.8862 40 13.1488 37.2436 13.1488 33.9296V27.8591C13.1488 27.3016 12.7489 26.7132 12.0569 26.7596C11.3648 26.8061 6.02843 26.7596 6.02843 26.7596C2.73738 26.7596 -3.05176e-05 24.0031 -3.05176e-05 20.6891V19.1715C-3.05176e-05 15.8575 2.73738 12.9617 6.02843 12.9617H12.0569C12.6105 12.9617 13.1488 12.4042 13.1488 11.8622V6.07047C13.1488 2.75649 15.8862 0 19.1772 0H20.8228ZM19.0081 4.10376C19.5771 4.08827 19.9308 3.76307 19.9308 3.17461C19.9308 2.57066 19.2695 2.24545 18.6697 2.29191C17.8854 2.33837 16.3937 2.80295 15.9938 4.92451C15.8862 5.45103 15.7939 6.5815 15.8862 7.06156C15.9938 7.61906 16.3168 7.95974 16.8397 7.95974C17.6547 7.95974 17.6855 7.06156 17.6855 7.06156C17.6855 7.06156 17.7009 6.30276 17.7778 5.52846C17.8393 4.86257 18.2237 4.13473 19.0081 4.10376Z" fill="currentColor"/>
  </g>
  <defs>
    <clipPath id="clip0_1038_9641">
      <rect width="40" height="40" fill="currentColor"/>
    </clipPath>
  </defs>
</svg>
