<svg width="17" height="17" viewBox="0 0 17 17" fill="none" xmlns="http://www.w3.org/2000/svg">
  <g clip-path="url(#clip0_1181_8801)">
    <path d="M7.43935 3.63063C8.0754 3.13061 8.46444 3.17062 9.07579 3.63063C9.78594 4.17065 14.3 7.47077 14.3 7.47077V15.7177C14.3 16.2844 13.9666 16.7178 13.2255 16.7178H10.2182V11.7376C10.2182 11.2042 9.80446 10.8176 9.23017 10.7909H7.5752C6.8033 10.7642 6.42661 11.1776 6.42661 11.7109V16.7178H3.23403C2.74001 16.7178 2.32627 16.2578 2.32627 15.7177V7.4641L7.44553 3.6373L7.43935 3.63063ZM16.1402 7.09076C16.2514 6.85742 16.344 6.44407 15.9426 6.05739C15.8129 5.93072 9.38454 1.28388 9.01403 0.997203C8.52001 0.61719 7.89632 0.61719 7.38377 1.04387C7.18617 1.21054 0.516932 6.09072 0.449005 6.17072C0.239047 6.43073 0.22669 6.5374 0.23904 6.69074C0.251391 6.87075 0.33785 7.03742 0.46753 7.15076C0.726889 7.37743 0.980068 7.39744 1.36911 7.18409C1.49261 7.11743 7.35907 2.69727 7.78516 2.40392C8.02599 2.23725 8.41504 2.23725 8.68057 2.43059C8.94611 2.62393 14.8681 6.97075 15.0719 7.09076C15.2201 7.17743 15.4918 7.3241 15.6586 7.3241C15.887 7.3241 16.06 7.25743 16.1402 7.09076Z" fill="currentColor"/>
  </g>
  <defs>
    <clipPath id="clip0_1181_8801">
      <rect width="16" height="16" fill="currentColor" transform="translate(0.235718 0.717773)"/>
    </clipPath>
  </defs>
</svg>
