<svg width="17" height="17" viewBox="0 0 17 17" fill="none" xmlns="http://www.w3.org/2000/svg">
  <path d="M11.0832 1.71778C8.42686 1.72306 6.27778 3.88059 6.28305 6.53692C6.28411 7.0296 6.36073 7.51912 6.51039 7.98857L2.09401 12.4028L1.90234 12.5966V15.7178H5.40725V13.9653H7.1597V12.2133H8.52586L8.71753 12.0216L9.63028 11.1089C10.1056 11.2602 10.6017 11.3369 11.1005 11.3362L11.1022 11.3371C13.7585 11.3318 15.9076 9.17426 15.9023 6.51792C15.8971 3.86159 13.7395 1.71251 11.0832 1.71778ZM12.1975 6.51624C11.5926 6.51624 11.1022 6.02588 11.1022 5.4209C11.1022 4.81592 11.5926 4.32556 12.1975 4.32556C12.8025 4.32556 13.2929 4.81592 13.2929 5.4209C13.2929 6.02588 12.8025 6.51624 12.1975 6.51624Z" fill="currentColor"/>
</svg>
