<svg width="16" height="17" viewBox="0 0 16 17" fill="none" xmlns="http://www.w3.org/2000/svg">
  <path d="M7.64575 0.904574C7.70365 0.832757 7.77644 0.77435 7.85909 0.733379C7.94175 0.692407 8.0323 0.669844 8.12452 0.667245C8.21673 0.664647 8.30842 0.682075 8.39325 0.718327C8.47808 0.754579 8.55404 0.808795 8.61589 0.877236C10.7289 3.37361 13.1446 4.52444 14.4901 4.34442C14.8702 4.29374 15.1369 4.81115 15.0468 5.34457C14.7801 6.9328 14.1067 11.6728 12.7285 13.6865C11.3283 15.7234 9.02195 16.6769 8.23184 16.6669C7.44172 16.6569 5.08604 15.7234 3.55781 13.6865C2.13093 11.8502 1.42283 7.1735 1.21613 5.34523C1.12745 4.55978 1.39082 4.30975 1.81622 4.28708C2.96692 4.14956 4.07745 3.77864 5.07982 3.19702C6.08219 2.61541 6.95532 1.83534 7.64575 0.904574ZM9.51736 14.9687C9.98864 14.7002 10.4253 14.3751 10.8176 14.0005C11.3195 13.5375 11.7442 12.9973 12.0757 12.4003C12.0957 12.3576 12.0911 12.2476 12.0091 12.2296C11.8539 12.197 11.7043 12.142 11.565 12.0662C11.463 12.0116 11.3583 11.9442 11.2236 11.8589C11.2107 11.8507 11.1962 11.8455 11.181 11.8434C11.1659 11.8413 11.1505 11.8425 11.1358 11.8468C11.1212 11.8512 11.1077 11.8586 11.0961 11.8686C11.0846 11.8786 11.0753 11.891 11.0689 11.9049C10.7608 12.4246 10.375 12.8941 9.92475 13.2971C9.60105 13.5674 9.2546 13.8092 8.88927 14.0199C8.70924 14.1292 8.46987 14.1765 8.4152 14.4379C8.38655 14.6263 8.38006 14.8174 8.39586 15.0073C8.46054 15.5948 9.23732 15.116 9.51736 14.9687Z" fill="currentColor"/>
</svg>
