<svg width="17" height="17" viewBox="0 0 17 17" fill="none" xmlns="http://www.w3.org/2000/svg">
  <path d="M16.5003 3.88122V2.48024C16.5006 2.41649 16.4885 2.35332 16.4647 2.29437C16.441 2.23543 16.4062 2.18187 16.3622 2.13679C16.3182 2.09171 16.2659 2.05599 16.2084 2.03169C16.1509 2.00739 16.0893 1.99499 16.027 1.99521H2.81434V1.1519C2.81458 1.08814 2.80251 1.02496 2.7788 0.966008C2.7551 0.907054 2.72025 0.853491 2.67624 0.808412C2.63224 0.763333 2.57997 0.727628 2.52243 0.703356C2.4649 0.679085 2.40324 0.666729 2.34103 0.666998H0.973927C0.911682 0.666674 0.849993 0.678998 0.792426 0.703259C0.734858 0.727519 0.682556 0.763235 0.638542 0.808339C0.594528 0.853444 0.559676 0.907043 0.536002 0.966037C0.512328 1.02503 0.5003 1.08825 0.500616 1.15204V16.1819C0.5003 16.2457 0.512328 16.309 0.536002 16.3679C0.559676 16.4269 0.594528 16.4805 0.638542 16.5256C0.682556 16.5707 0.734858 16.6065 0.792426 16.6307C0.849993 16.655 0.911682 16.6673 0.973927 16.667H2.34103C2.40326 16.6673 2.46492 16.6549 2.52247 16.6306C2.58001 16.6063 2.63229 16.5706 2.67629 16.5255C2.7203 16.4804 2.75515 16.4269 2.77885 16.3679C2.80254 16.3089 2.8146 16.2457 2.81434 16.1819V4.36667H7.17751V6.43141H5.30286C5.24063 6.43114 5.17896 6.4435 5.12142 6.46778C5.06387 6.49206 5.01159 6.52778 4.96759 6.57287C4.92359 6.61797 4.88873 6.67155 4.86504 6.73052C4.84135 6.78948 4.82928 6.85268 4.82955 6.91645V14.6743C4.82928 14.7381 4.84135 14.8013 4.86504 14.8603C4.88873 14.9192 4.92359 14.9728 4.96759 15.0179C5.01159 15.063 5.06387 15.0987 5.12142 15.123C5.17896 15.1473 5.24063 15.1596 5.30286 15.1594H16.0273C16.0895 15.1596 16.1512 15.1472 16.2087 15.1229C16.2662 15.0986 16.3185 15.0629 16.3624 15.0178C16.4064 14.9727 16.4413 14.9191 16.465 14.8602C16.4887 14.8013 16.5008 14.7381 16.5006 14.6743V6.91645C16.5008 6.85269 16.4887 6.78952 16.465 6.73058C16.4413 6.67163 16.4064 6.61808 16.3624 6.573C16.3185 6.52791 16.2662 6.49219 16.2087 6.46789C16.1512 6.4436 16.0895 6.4312 16.0273 6.43141H14.1565V4.36667H16.027C16.0893 4.36699 16.151 4.35466 16.2086 4.33037C16.2662 4.30608 16.3185 4.27033 16.3626 4.22518C16.4066 4.18004 16.4414 4.12639 16.4651 4.06735C16.4887 4.00831 16.5007 3.94504 16.5003 3.88122ZM7.84341 4.36667H13.4905V6.43141H7.84341V4.36667Z" fill="currentColor"/>
</svg>
