<svg width="17" height="17" viewBox="0 0 17 17" fill="none" xmlns="http://www.w3.org/2000/svg">
  <g clip-path="url(#clip0_1202_1335)">
    <path d="M8.50091 3.73898C8.94895 3.10412 9.55647 2.5986 10.2622 2.27341C10.9679 1.94822 11.7469 1.81485 12.5206 1.88675C13.293 1.94848 14.0345 2.21663 14.6677 2.66315C15.301 3.10967 15.8025 3.71816 16.12 4.42494C16.873 6.0238 16.4707 7.71872 15.2484 9.13127C12.8965 11.6714 11.0178 13.7409 9.60722 15.0574C9.305 15.3508 8.91781 15.5412 8.50091 15.6015C8.0837 15.5405 7.69647 15.3492 7.3946 15.0548C5.98657 13.7383 4.10533 11.6688 1.75346 9.12869C0.528528 7.71808 0.128813 6.02316 0.881824 4.42236C1.19956 3.71594 1.70125 3.10785 2.33444 2.66169C2.96763 2.21552 3.70905 1.94766 4.48119 1.88611C5.25497 1.81428 6.034 1.94775 6.73973 2.27305C7.44546 2.59836 8.05294 3.104 8.50091 3.73898ZM1.92495 5.87746C1.92273 5.93305 1.93302 5.98844 1.95504 6.03953C1.97707 6.09063 2.01028 6.13613 2.05222 6.17269C2.09416 6.20925 2.14377 6.23594 2.19739 6.25078C2.25102 6.26563 2.30729 6.26826 2.36206 6.25848C2.41886 6.26011 2.47532 6.24922 2.52743 6.22656C2.57954 6.20391 2.62602 6.17005 2.66357 6.1274C2.70111 6.08474 2.7288 6.03435 2.74466 5.97978C2.76051 5.92522 2.76416 5.86783 2.75533 5.8117C2.78531 5.35017 2.97153 4.9126 3.28335 4.57102C3.59516 4.22944 4.01399 4.00421 4.47088 3.93239C4.7539 3.89629 5.07045 3.80796 5.03886 3.56233C5.01318 3.43691 4.93906 3.32669 4.8326 3.25559C4.72613 3.1845 4.59592 3.15827 4.47023 3.1826C3.78452 3.22854 3.14141 3.53162 2.66951 4.03126C2.19761 4.53089 1.9317 5.19023 1.92495 5.87746Z" fill="currentColor"/>
  </g>
  <defs>
    <clipPath id="clip0_1202_1335">
      <rect width="16" height="16" fill="white" transform="translate(0.5 0.666992)"/>
    </clipPath>
  </defs>
</svg>
