<svg width="19" height="15" viewBox="0 0 19 15" fill="none" xmlns="http://www.w3.org/2000/svg">
  <path d="M2.56366 1.78337C1.91338 1.78337 1.4076 2.32527 1.4076 2.93943V4.3845L8.45232 9.58676C9.06648 10.0203 9.89739 10.0203 10.5115 9.58676L17.5924 4.3845V2.93943C17.5924 2.32527 17.0505 1.78337 16.4363 1.78337H2.56366ZM1.4076 5.82957V12.1879C1.4076 12.8382 1.91338 13.3439 2.56366 13.3439H16.4363C17.0505 13.3439 17.5924 12.8382 17.5924 12.1879V5.82957L11.198 10.5261C10.1864 11.2486 8.77746 11.2486 7.76591 10.5261L1.4076 5.82957ZM0.251543 2.93943C0.251543 1.67499 1.26309 0.627315 2.56366 0.627315H16.4363C17.7008 0.627315 18.7485 1.67499 18.7485 2.93943V12.1879C18.7485 13.4885 17.7008 14.5 16.4363 14.5H2.56366C1.26309 14.5 0.251543 13.4885 0.251543 12.1879V2.93943Z" fill="#0F58AB"/>
</svg>
