<svg width="16" height="17" viewBox="0 0 16 17" fill="none" xmlns="http://www.w3.org/2000/svg">
  <g clip-path="url(#clip0_1202_1347)">
    <path d="M15.129 3.08252L0.580474 6.06125C0.436092 6.09015 0.303971 6.16243 0.201778 6.26844C0.099585 6.37445 0.0321903 6.50913 0.00860482 6.65447C-0.0149807 6.79982 0.00636727 6.9489 0.0697943 7.08178C0.133221 7.21467 0.235704 7.32502 0.363541 7.39809L3.6139 9.27575C3.7072 9.3298 3.78727 9.404 3.84824 9.49294C3.90921 9.58188 3.94956 9.68331 3.96634 9.78983L4.56184 13.5707C4.58079 13.6909 4.6298 13.8045 4.70434 13.9008C4.77887 13.9971 4.87652 14.073 4.98821 14.1215C5.09991 14.1699 5.22204 14.1894 5.34328 14.1781C5.46452 14.1668 5.58094 14.1251 5.68175 14.0568L8.00847 12.4805C8.12865 12.3989 8.2706 12.3552 8.4159 12.3552C8.5612 12.3552 8.70315 12.3989 8.82333 12.4805L11.2813 14.1674C11.3722 14.2297 11.4762 14.2703 11.5852 14.2863C11.6942 14.3023 11.8055 14.2932 11.9105 14.2597C12.0154 14.2262 12.1114 14.1691 12.1909 14.0929C12.2705 14.0167 12.3316 13.9233 12.3696 13.8198L15.9548 4.04018C15.9993 3.91911 16.0107 3.78832 15.9876 3.66138C15.9646 3.53444 15.908 3.41597 15.8238 3.31827C15.7395 3.22057 15.6307 3.14718 15.5085 3.10573C15.3863 3.06427 15.2553 3.05626 15.129 3.08252ZM11.8221 5.9464L6.33316 10.2681C6.31494 10.2826 6.30089 10.3016 6.29244 10.3234L5.52741 12.3128C5.5172 12.3389 5.49877 12.361 5.47489 12.3757C5.45101 12.3904 5.423 12.3968 5.3951 12.3942C5.3672 12.3915 5.34093 12.3798 5.32029 12.3608C5.29964 12.3419 5.28574 12.3167 5.2807 12.2891L4.75629 9.37905C4.75139 9.35181 4.75536 9.3237 4.76761 9.29888C4.77985 9.27405 4.79974 9.25381 4.82435 9.24112L11.6842 5.73068C11.7126 5.71669 11.7452 5.71366 11.7757 5.72218C11.8062 5.7307 11.8325 5.75016 11.8496 5.77686C11.8667 5.80355 11.8733 5.8356 11.8682 5.86688C11.8632 5.89816 11.8468 5.92647 11.8221 5.9464Z" fill="currentColor"/>
  </g>
  <defs>
    <clipPath id="clip0_1202_1347">
      <rect width="16" height="16" fill="white" transform="translate(0 0.666992)"/>
    </clipPath>
  </defs>
</svg>
