<svg width="17" height="17" viewBox="0 0 17 17" fill="none" xmlns="http://www.w3.org/2000/svg">
  <path d="M9.59353 11.6032C9.59353 12.9176 9.59353 13.275 9.35744 14.1108C9.12136 14.8255 8.16422 15.6613 7.2135 15.7826C6.49886 15.9038 6.02031 15.5465 5.66299 14.7106C5.66299 14.5894 5.54175 14.4745 5.54175 14.4745C5.30567 13.5174 4.82712 13.0452 3.75516 12.8028C3.27661 12.6815 2.79806 12.4455 2.32589 12.2094C1.85372 11.9733 1.61125 11.7308 1.61125 11.2523C1.49002 10.1803 1.61125 9.34444 2.80444 8.98712C4.23372 8.50857 5.66937 8.15125 7.21988 8.15125C8.05575 8.15125 8.64915 8.50857 9.12771 9.2232C9.48503 10.0591 9.60626 10.5376 9.60626 11.6096L9.59353 11.6032Z" fill="currentColor"/>
  <path d="M12.101 8.97522C11.1439 8.97522 10.7866 8.38181 10.7866 7.66079C11.0227 6.11028 12.101 5.39564 13.4091 4.91709C13.6452 4.79586 14.0025 4.681 14.245 4.681C15.0808 4.55977 15.7955 5.27441 15.5594 5.99543C15.4381 6.47398 15.2021 6.95254 14.966 7.30985C13.894 8.73913 12.101 8.9816 12.101 8.9816V8.97522Z" fill="currentColor"/>
  <path d="M7.80692 5.04408C7.80692 3.72965 8.76402 2.30037 9.95083 1.82182C10.9079 1.4645 11.7374 2.05791 11.7374 3.13625C11.6162 4.45067 10.9016 5.52263 9.8296 6.3585C9.35104 6.59459 8.87249 6.59459 8.51517 6.3585C8.03662 6.00118 7.80054 5.64386 7.80054 5.04408H7.80692Z" fill="currentColor"/>
  <path d="M6.72865 4.92332C6.72865 5.51672 6.49253 6.11651 6.13521 6.70991C5.89912 7.30332 5.29934 7.54579 4.70594 7.42455C4.11253 7.18847 3.51275 6.58868 3.39151 5.99527C3.27028 4.68085 3.98491 3.48766 5.29934 2.89425C5.77789 2.77302 6.13525 2.77302 6.37133 3.25157C6.72865 3.60889 6.84988 4.08744 6.72865 4.92332Z" fill="currentColor"/>
  <path d="M11.6226 13.7471C10.7867 13.7471 10.4294 13.3898 10.4294 12.79C10.5506 11.8329 10.9079 11.1182 11.6226 10.6461C12.1011 10.41 12.5797 10.1675 13.1731 10.0526C14.1302 9.81656 14.7236 10.6461 14.4875 11.4819C14.3663 11.8392 14.3663 11.9605 14.2514 12.0753C13.5368 13.0324 12.5797 13.5046 11.629 13.7471H11.6226Z" fill="currentColor"/>
</svg>
