<svg width="17" height="18" viewBox="0 0 17 18" fill="none" xmlns="http://www.w3.org/2000/svg">
  <path d="M12.4925 9.61433L15.9992 11.1172C16.5628 11.3364 16.8759 11.9313 16.7506 12.5262L15.9992 16.0329C15.8739 16.5964 15.3417 17.0348 14.7781 17.0348C14.5589 17.0348 14.3711 17.0035 14.1832 17.0035C13.8701 17.0035 13.557 16.9722 13.2752 16.9408C6.2305 16.1894 0.751272 10.2405 0.751272 2.97664C0.751272 2.41306 1.1583 1.88079 1.72188 1.75555L5.22859 1.00412C5.82347 0.878878 6.41836 1.19198 6.63753 1.75555L8.1404 5.26226C8.35957 5.76322 8.23433 6.35811 7.796 6.70252L6.51229 7.76705C7.35766 9.20731 8.54743 10.3971 9.98769 11.2424L11.0522 9.95874C11.3966 9.5204 11.9915 9.39517 12.4925 9.61433ZM14.5589 15.5006L15.2164 12.4009L12.0854 11.0546L11.1775 12.1817C10.7078 12.7453 9.89376 12.9019 9.23625 12.5262C7.57683 11.5555 6.19919 10.1779 5.22859 8.51849C4.85287 7.86098 5.00942 7.04692 5.57299 6.57728L6.70015 5.66929L5.35382 2.5383L2.25415 3.19581C2.34808 9.95874 7.796 15.4067 14.5589 15.5006Z" fill="white"/>
</svg>
