<svg width="18" height="18" viewBox="0 0 18 18" fill="none" xmlns="http://www.w3.org/2000/svg">
<path d="M7.48208 10.5114C8.58542 11.6544 9.92044 12.5368 11.3934 13.0967L13.386 11.4775C13.4451 11.436 13.5151 11.4137 13.5869 11.4137C13.6586 11.4137 13.7286 11.436 13.7877 11.4775L17.4876 13.9117C17.628 13.9979 17.7469 14.1163 17.8349 14.2576C17.9228 14.3988 17.9774 14.559 17.9944 14.7254C18.0113 14.8919 17.9901 15.0601 17.9324 15.2167C17.8747 15.3734 17.7821 15.5142 17.662 15.6281L15.9284 17.3768C15.6801 17.6273 15.3749 17.8111 15.0401 17.9119C14.7054 18.0127 14.3513 18.0272 14.0097 17.9543C10.6017 17.2356 7.46048 15.5522 4.94503 13.0967C2.4854 10.6168 0.783347 7.46128 0.0453422 4.01301C-0.027563 3.66955 -0.0123467 3.31268 0.0895166 2.97698C0.19138 2.64129 0.376436 2.33816 0.62675 2.09696L2.42383 0.32664C2.53504 0.209943 2.67066 0.120449 2.82053 0.0648576C2.97041 0.00926675 3.13066 -0.01098 3.28929 0.00563341C3.44791 0.0222469 3.6008 0.07529 3.73651 0.160791C3.87221 0.246292 3.98722 0.362035 4.07291 0.499354L6.53597 4.22891C6.57845 4.28747 6.60139 4.35842 6.60139 4.43131C6.60139 4.50419 6.57845 4.57514 6.53597 4.63371L4.91331 6.62532C5.47653 8.0993 6.35401 9.42676 7.48208 10.5114Z" fill="#1E3A8A"/>
</svg>
