<svg xmlns="http://www.w3.org/2000/svg" width="20" height="16" viewBox="0 0 20 16" fill="none">
  <path d="M11.1705 15.936V10.496C11.1705 7.68 11.8394 5.376 13.1772 3.584C14.515 1.74933 16.477 0.554667 19.0634 0V2.88C17.6364 3.22133 16.5885 3.86133 15.9196 4.8C15.2507 5.696 14.8271 6.848 14.6487 8.256H17.7256V15.936H11.1705ZM0 15.936V10.496C0 7.68 0.646595 5.376 1.93979 3.584C3.27757 1.74933 5.23965 0.554667 7.82603 0V2.88C6.44366 3.22133 5.39573 3.86133 4.68224 4.8C4.01335 5.696 3.61202 6.848 3.47824 8.256H6.48825V15.936H0Z" fill="#0F58AB"/>
</svg>
