<svg width="30" height="33" viewBox="0 0 30 33" fill="none" xmlns="http://www.w3.org/2000/svg">
  <path d="M16.32 25.488V20.048C16.32 17.232 16.96 14.928 18.24 13.136C19.52 11.3013 21.3973 10.1067 23.872 9.552V12.432C22.5067 12.7733 21.504 13.4133 20.864 14.352C20.224 15.248 19.8187 16.4 19.648 17.808H22.592V25.488H16.32ZM5.632 25.488V20.048C5.632 17.232 6.25067 14.928 7.488 13.136C8.768 11.3013 10.6453 10.1067 13.12 9.552V12.432C11.7973 12.7733 10.7947 13.4133 10.112 14.352C9.472 15.248 9.088 16.4 8.96 17.808H11.84V25.488H5.632Z" fill="#0F58AB"/>
</svg>
