<svg width="16" height="17" viewBox="0 0 16 17" fill="none" xmlns="http://www.w3.org/2000/svg">
  <g clip-path="url(#clip0_1202_1351)">
    <path d="M4.31717 16.6668C3.37924 16.6603 2.47527 16.315 1.77186 15.6945C1.37887 15.3644 1.05533 14.9596 0.820001 14.5036C0.584673 14.0475 0.442243 13.5493 0.400974 13.0377C0.371528 11.9742 0.729601 10.9363 1.40852 10.1171L3.47146 7.6946C3.26429 6.80253 3.26136 5.87517 3.46286 4.9818C3.66437 4.08842 4.06512 3.25212 4.63517 2.53535C5.96828 1.08008 8.30704 0.666992 9.39644 0.666992C9.93428 0.688396 10.468 0.769927 10.9877 0.910062C11.1099 0.910062 11.2837 1.06308 11.3498 1.27215C11.3802 1.35573 11.3847 1.44649 11.3629 1.53271C11.3412 1.61892 11.294 1.69662 11.2277 1.75577L9.04443 4.42198C8.07278 5.51138 7.95503 6.96665 8.68298 7.57055C8.94689 7.81392 9.2958 7.94394 9.65462 7.93263C10.4913 7.8493 11.2682 7.46163 11.8378 6.84323L14.1426 4.05422C14.2023 3.98867 14.28 3.94214 14.366 3.92042C14.452 3.89869 14.5425 3.90274 14.6262 3.93206C14.7198 3.93954 14.8076 3.98009 14.8739 4.04645C14.9403 4.1128 14.9808 4.20061 14.9883 4.29415C15.7156 6.23304 15.8378 8.89987 14.3825 10.7172C13.808 11.4109 13.0854 11.9672 12.2678 12.3452C11.4502 12.7232 10.5584 12.9133 9.65777 12.9017H9.53183L7.47078 15.3242C7.06625 15.7535 6.57722 16.0945 6.03447 16.3255C5.49173 16.5566 4.90702 16.6728 4.31717 16.6668ZM3.08608 14.1807C3.36962 14.4438 3.74411 14.5867 4.13086 14.5795C4.51761 14.5723 4.8865 14.4154 5.16002 14.1419C5.43354 13.8684 5.59039 13.4995 5.59762 13.1128C5.60484 12.726 5.46188 12.3515 5.19877 12.068C4.91522 11.8049 4.54073 11.6619 4.15398 11.6691C3.76723 11.6763 3.39834 11.8332 3.12482 12.1067C2.8513 12.3802 2.69445 12.7491 2.68723 13.1359C2.68 13.5226 2.82296 13.8971 3.08608 14.1807Z" fill="currentColor"/>
  </g>
  <defs>
    <clipPath id="clip0_1202_1351">
      <rect width="16" height="16" fill="white" transform="translate(0 0.666992)"/>
    </clipPath>
  </defs>
</svg>
