<svg width="18" height="18" viewBox="0 0 18 18" fill="none" xmlns="http://www.w3.org/2000/svg">
  <path d="M17.669 17.669C18.1103 17.2276 18.1103 16.5121 17.669 16.0707L12.9596 11.3605C13.8473 10.1406 14.3249 8.67041 14.3234 7.16171C14.3234 3.21282 11.1106 0 7.16171 0C3.21282 0 0 3.21282 0 7.16171C0 11.1106 3.21282 14.3234 7.16171 14.3234C8.67041 14.3249 10.1406 13.8473 11.3605 12.9596L16.0707 17.669C16.5121 18.1103 17.2276 18.1103 17.669 17.669ZM7.16171 12.0615C6.19249 12.0616 5.24501 11.7743 4.4391 11.2359C3.63319 10.6974 3.00505 9.93214 2.6341 9.03671C2.26316 8.14129 2.16608 7.15598 2.35514 6.20538C2.54421 5.25478 3.01092 4.3816 3.69626 3.69626C4.3816 3.01092 5.25478 2.54421 6.20538 2.35514C7.15598 2.16608 8.14129 2.26316 9.03671 2.6341C9.93214 3.00505 10.6974 3.63319 11.2359 4.4391C11.7743 5.24501 12.0616 6.19249 12.0615 7.16171C12.06 8.46075 11.5433 9.70615 10.6247 10.6247C9.70615 11.5433 8.46075 12.06 7.16171 12.0615Z" fill="#122B71"/>
</svg>
