<svg width="17" height="17" viewBox="0 0 17 17" fill="none" xmlns="http://www.w3.org/2000/svg">
  <g clip-path="url(#clip0_1202_1327)">
    <path d="M11.565 9.09789C10.8124 9.85703 9.52702 10.9319 9.52702 10.9319C8.68785 11.5298 7.18267 12.7995 5.93058 13.693C5.93058 14.2439 5.99052 15.3524 5.96388 15.5607C5.90498 16.0663 5.57531 16.4817 5.12711 16.6593L5.11805 16.6624C4.59857 16.7766 3.58624 14.7142 3.58624 14.7142L2.80035 13.9752C2.80035 13.9752 0.629166 12.9876 0.802328 12.2755C0.961753 11.7963 1.38261 11.4486 1.88971 11.4025L1.89458 11.4022C2.55236 11.4046 3.19579 11.4582 3.82352 11.5594L3.75274 11.55C4.74509 10.1056 5.69082 8.76199 6.28356 7.91552C6.28356 7.91552 7.40912 6.49801 8.14838 5.73887C9.04083 4.8185 12.2576 1.78866 12.2576 1.78866C13.4298 0.606281 15.4545 0.337559 16.1937 1.08326C16.6666 1.56024 16.6932 3.01134 15.5277 4.58337C15.5477 4.58337 12.3176 8.33875 11.565 9.09789ZM9.07413 3.72346L1.92122 3.12555C1.86446 3.1165 1.79901 3.11134 1.73234 3.11134C1.1626 3.11134 0.680345 3.48916 0.51838 4.00996L0.515945 4.01905C0.416044 4.61696 0.749047 5.24845 1.94786 5.79933L5.57094 7.53259C5.57094 7.53259 6.3102 6.43755 7.06279 5.59107C7.68967 4.9364 8.34563 4.32367 9.03409 3.74919L9.07413 3.71674V3.72346ZM15.3013 1.78194C15.0375 1.56106 14.6953 1.42704 14.3221 1.42704C14.0212 1.42704 13.7405 1.51418 13.5034 1.66479L13.5097 1.66101C13.0302 2.11784 14.1225 1.7685 14.7685 2.33282C15.4145 2.89714 15.1082 3.91156 15.4944 3.59581C15.6587 3.37494 15.7574 3.09622 15.7574 2.79422C15.7574 2.39114 15.5815 2.02952 15.3028 1.78326L15.3013 1.78194ZM11.9646 10.0115C11.3758 10.6349 10.7426 11.2033 10.0658 11.7163L10.0265 11.7448L11.9246 15.2516C12.5041 16.4206 13.1701 16.7296 13.7562 16.5952C14.2502 16.4115 14.5961 15.9407 14.5961 15.3884C14.5961 15.3068 14.5885 15.227 14.5741 15.1496L14.5753 15.1576L13.6896 7.99616C13.6896 7.99616 12.6706 9.22556 11.9646 10.0116V10.0115Z" fill="currentColor"/>
  </g>
  <defs>
    <clipPath id="clip0_1202_1327">
      <rect width="16" height="16" fill="white" transform="translate(0.5 0.666992)"/>
    </clipPath>
  </defs>
</svg>
